<svg xmlns="http://www.w3.org/2000/svg" viewBox="0 0 128 128" fill="none">
  <rect width="128" height="128" rx="28" fill="#fff"/>
  <g transform="translate(64 64) rotate(-35) translate(-64 -64)">
    <path fill="#FFC133" d="M78 34a18 18 0 1 1-36 0 14 14 0 1 0 28 0 14 14 0 1 0-28 0 18 18 0 1 1 36 0Z"/>
    <circle cx="78" cy="34" r="8" fill="#FFC133"/>
    <path fill="#29C5D5" d="M50 94a18 18 0 1 1-36 0 14 14 0 1 0 28 0 14 14 0 1 0-28 0 18 18 0 1 1 36 0Z"/>
    <circle cx="50" cy="94" r="8" fill="#29C5D5"/>
  </g>
</svg>
